<svg id="svg" version="1.1" xmlns="http://www.w3.org/2000/svg" xmlns:xlink="http://www.w3.org/1999/xlink" width="400" height="400" viewBox="0, 0, 400,400"><g id="svgg"><path id="path0" d="M194.125 16.395 C 191.249 16.899,187.461 18.139,184.956 19.397 C 181.559 21.103,48.085 96.163,46.135 97.464 C 39.223 102.075,33.836 110.387,32.385 118.680 C 31.722 122.474,31.810 278.254,32.478 281.698 C 34.093 290.031,39.315 297.994,46.138 302.529 C 47.942 303.728,181.858 379.045,184.900 380.572 C 193.920 385.098,205.929 385.148,214.842 380.697 C 218.019 379.111,351.956 303.805,353.862 302.533 C 360.707 297.967,365.767 290.252,367.503 281.737 C 368.268 277.981,368.287 122.246,367.522 118.302 C 365.907 109.969,360.698 102.021,353.865 97.464 C 351.904 96.156,218.416 21.090,215.044 19.399 C 209.097 16.416,200.803 15.225,194.125 16.395 M209.625 104.626 C 228.454 106.622,245.123 113.482,260.125 125.409 C 265.311 129.532,276.537 141.358,275.852 141.976 C 275.727 142.089,269.100 145.953,261.125 150.562 C 253.150 155.172,245.445 159.631,244.004 160.470 L 241.383 161.997 239.379 160.029 C 214.238 135.337,172.794 139.629,153.247 168.950 C 142.239 185.462,140.903 207.334,149.816 225.125 C 162.961 251.365,194.206 262.996,221.500 251.811 C 227.767 249.243,233.940 245.195,239.004 240.334 L 241.410 238.026 258.578 247.969 C 268.020 253.438,275.816 257.983,275.903 258.069 C 276.886 259.052,262.589 273.034,255.316 278.201 C 199.869 317.597,121.669 287.609,106.515 221.139 C 92.058 157.733,145.108 97.787,209.625 104.626 M296.000 168.000 L 296.000 176.000 304.000 176.000 L 312.000 176.000 312.000 168.000 L 312.000 160.000 320.000 160.000 L 328.000 160.000 328.000 168.000 L 328.000 176.000 336.000 176.000 L 344.000 176.000 344.000 184.000 L 344.000 192.000 336.000 192.000 L 328.000 192.000 328.000 200.000 L 328.000 208.000 336.000 208.000 L 344.000 208.000 344.000 216.000 L 344.000 224.000 336.000 224.000 L 328.000 224.000 328.000 232.000 L 328.000 240.000 320.000 240.000 L 312.000 240.000 312.000 232.000 L 312.000 224.000 304.000 224.000 L 296.000 224.000 296.000 232.000 L 296.000 240.000 288.000 240.000 L 280.000 240.000 280.000 232.000 L 280.000 224.000 272.000 224.000 L 264.000 224.000 264.000 216.000 L 264.000 208.000 272.000 208.000 L 280.000 208.000 280.000 200.000 L 280.000 192.000 272.000 192.000 L 264.000 192.000 264.000 184.000 L 264.000 176.000 272.000 176.000 L 280.000 176.000 280.000 168.000 L 280.000 160.000 288.000 160.000 L 296.000 160.000 296.000 168.000 M296.000 200.000 L 296.000 208.000 304.000 208.000 L 312.000 208.000 312.000 200.000 L 312.000 192.000 304.000 192.000 L 296.000 192.000 296.000 200.000 " stroke="none" fill="#047cfc" fill-rule="evenodd"></path><path id="path1" d="" stroke="none" fill="#087cfc" fill-rule="evenodd"></path><path id="path2" d="" stroke="none" fill="#087cfc" fill-rule="evenodd"></path></g></svg>