<svg id="svg" xmlns="http://www.w3.org/2000/svg" xmlns:xlink="http://www.w3.org/1999/xlink" width="400" height="457.14285714285717" viewBox="0, 0, 400,457.14285714285717" version="1.1"><g id="svgg"><path id="path0" d="M34.084 28.617 C 33.653 29.104,31.510 29.453,30.270 29.237 C 30.089 29.206,30.055 29.365,30.194 29.590 C 30.345 29.835,29.965 30.000,29.247 30.000 C 28.587 30.000,27.936 30.180,27.800 30.400 C 27.664 30.620,27.203 30.800,26.776 30.800 C 26.349 30.800,26.000 30.980,26.000 31.200 C 26.000 31.420,25.751 31.600,25.446 31.600 C 25.141 31.600,24.389 31.861,23.774 32.180 C 23.160 32.498,22.509 32.668,22.329 32.556 C 22.148 32.444,22.000 32.600,22.000 32.902 C 22.000 33.474,19.353 34.699,18.620 34.467 C 18.389 34.393,18.317 34.450,18.460 34.594 C 18.828 34.961,16.555 37.200,15.813 37.200 C 15.476 37.200,15.200 37.380,15.200 37.600 C 15.200 37.820,14.930 38.000,14.600 38.000 C 14.270 38.000,14.000 38.270,14.000 38.600 C 14.000 38.930,13.736 39.200,13.413 39.200 C 13.029 39.200,12.914 39.431,13.081 39.866 C 13.238 40.276,13.176 40.432,12.919 40.274 C 12.387 39.945,9.892 42.301,10.216 42.826 C 10.350 43.043,10.311 43.187,10.130 43.146 C 9.569 43.022,8.394 43.667,8.594 43.990 C 8.698 44.158,8.337 44.814,7.792 45.448 C 7.247 46.082,6.801 46.836,6.800 47.124 C 6.800 47.412,6.620 47.536,6.400 47.400 C 6.180 47.264,6.000 47.406,6.000 47.715 C 6.000 48.535,4.804 50.800,4.371 50.800 C 4.167 50.800,4.000 51.160,4.000 51.600 C 4.000 52.040,3.820 52.400,3.600 52.400 C 3.380 52.400,3.200 52.760,3.200 53.200 C 3.200 53.640,3.020 54.000,2.800 54.000 C 2.580 54.000,2.400 54.435,2.400 54.967 C 2.400 55.498,2.222 55.993,2.003 56.067 C 1.785 56.140,1.544 56.744,1.467 57.408 C 1.389 58.073,1.073 59.063,0.763 59.608 C -0.010 60.970,-0.093 396.324,0.680 397.255 C 0.943 397.573,1.268 398.455,1.401 399.216 C 1.534 399.977,1.813 400.660,2.021 400.733 C 2.230 400.807,2.400 401.302,2.400 401.833 C 2.400 402.365,2.580 402.800,2.800 402.800 C 3.020 402.800,3.200 403.160,3.200 403.600 C 3.200 404.040,3.336 404.400,3.502 404.400 C 3.826 404.400,5.032 406.889,4.842 407.164 C 4.779 407.254,5.014 407.488,5.364 407.684 C 5.714 407.880,6.000 408.401,6.000 408.843 C 6.000 409.286,6.180 409.536,6.400 409.400 C 6.620 409.264,6.800 409.362,6.800 409.619 C 6.800 409.875,7.250 410.619,7.800 411.273 C 8.350 411.927,8.800 412.728,8.800 413.054 C 8.800 413.380,8.980 413.536,9.200 413.400 C 9.420 413.264,9.600 413.304,9.600 413.488 C 9.600 414.120,12.485 416.794,12.895 416.541 C 13.120 416.402,13.228 416.517,13.135 416.796 C 12.927 417.419,15.038 419.600,15.849 419.600 C 16.449 419.600,18.659 421.581,18.528 422.002 C 18.488 422.129,18.845 422.263,19.322 422.299 C 19.798 422.335,20.251 422.552,20.327 422.782 C 20.404 423.012,20.735 423.200,21.062 423.200 C 21.389 423.200,21.929 423.472,22.261 423.804 C 22.593 424.136,23.010 424.318,23.187 424.208 C 23.364 424.098,23.732 424.277,24.004 424.604 C 24.276 424.932,24.836 425.200,25.249 425.200 C 25.662 425.200,26.000 425.380,26.000 425.600 C 26.000 425.820,26.349 426.000,26.776 426.000 C 27.203 426.000,27.664 426.180,27.800 426.400 C 27.936 426.620,28.587 426.800,29.247 426.800 C 29.907 426.800,30.358 426.944,30.249 427.120 C 30.083 427.389,31.202 427.594,33.462 427.710 C 33.716 427.723,33.832 427.972,33.720 428.264 C 33.551 428.704,61.871 428.794,199.958 428.794 C 347.285 428.794,366.400 428.726,366.400 428.197 C 366.400 427.769,366.845 427.600,367.976 427.600 C 368.843 427.600,369.664 427.420,369.800 427.200 C 369.936 426.980,370.476 426.800,371.000 426.800 C 371.524 426.800,372.064 426.620,372.200 426.400 C 372.336 426.180,372.777 426.000,373.181 426.000 C 373.584 426.000,374.012 425.745,374.132 425.432 C 374.258 425.104,374.772 424.911,375.354 424.975 C 375.918 425.037,376.450 424.847,376.567 424.543 C 376.681 424.244,377.061 424.000,377.411 424.000 C 377.761 424.000,377.936 423.820,377.800 423.600 C 377.660 423.373,377.996 423.200,378.576 423.200 C 379.139 423.200,379.600 423.020,379.600 422.800 C 379.600 422.580,379.859 422.400,380.175 422.400 C 380.492 422.400,381.339 421.862,382.059 421.205 C 382.778 420.548,384.139 419.522,385.083 418.926 C 386.027 418.329,386.800 417.587,386.800 417.277 C 386.800 416.933,387.041 416.807,387.421 416.953 C 387.779 417.090,387.938 417.022,387.795 416.793 C 387.660 416.574,387.831 416.286,388.175 416.154 C 388.519 416.022,388.800 415.762,388.800 415.575 C 388.800 415.109,390.698 413.248,390.976 413.442 C 391.099 413.529,391.112 413.482,391.003 413.337 C 390.895 413.192,391.007 412.832,391.252 412.537 C 391.497 412.242,391.541 411.999,391.349 411.997 C 391.157 411.996,391.510 411.659,392.133 411.248 C 392.756 410.837,393.296 410.343,393.333 410.150 C 393.370 409.958,393.498 409.833,393.617 409.872 C 393.736 409.912,393.863 409.555,393.899 409.078 C 393.935 408.602,394.152 408.149,394.382 408.073 C 394.612 407.996,394.800 407.673,394.800 407.354 C 394.800 407.036,395.070 406.671,395.400 406.545 C 395.730 406.418,396.000 405.884,396.000 405.357 C 396.000 404.831,396.180 404.400,396.400 404.400 C 396.620 404.400,396.800 404.128,396.800 403.795 C 396.800 403.462,396.967 402.877,397.171 402.495 C 397.375 402.113,397.643 401.474,397.768 401.075 C 397.892 400.676,398.150 400.446,398.341 400.564 C 398.532 400.681,398.640 400.341,398.581 399.807 C 398.522 399.273,398.692 398.656,398.958 398.435 C 399.800 397.736,399.800 397.709,399.800 227.361 C 399.800 79.300,399.731 60.038,399.200 59.385 C 398.667 58.728,398.667 58.685,399.200 58.992 C 399.684 59.271,399.675 59.189,399.153 58.569 C 398.797 58.146,398.542 57.403,398.585 56.919 C 398.628 56.434,398.523 56.124,398.352 56.230 C 398.180 56.336,397.845 56.057,397.606 55.611 C 397.367 55.165,397.304 54.800,397.466 54.800 C 397.628 54.800,397.544 54.584,397.280 54.320 C 397.016 54.056,396.800 53.510,396.800 53.107 C 396.800 52.705,396.531 52.272,396.202 52.146 C 395.874 52.019,395.695 51.770,395.806 51.590 C 395.917 51.411,395.781 51.021,395.504 50.723 C 395.227 50.425,394.941 49.917,394.868 49.594 C 394.795 49.272,394.561 48.900,394.348 48.768 C 394.135 48.636,393.932 48.152,393.897 47.692 C 393.862 47.232,393.736 46.888,393.617 46.928 C 393.498 46.967,393.361 46.859,393.314 46.686 C 393.183 46.205,392.100 45.200,391.714 45.200 C 391.525 45.200,391.342 44.825,391.307 44.366 C 391.246 43.556,389.821 42.000,389.139 42.000 C 388.952 42.000,388.800 41.749,388.800 41.443 C 388.800 41.136,388.519 40.778,388.175 40.646 C 387.831 40.514,387.660 40.226,387.795 40.007 C 387.938 39.778,387.779 39.710,387.421 39.847 C 387.018 40.002,386.800 39.859,386.800 39.443 C 386.800 38.856,386.327 38.614,385.470 38.763 C 385.289 38.794,385.255 38.635,385.394 38.410 C 385.533 38.184,385.356 38.000,385.000 38.000 C 384.644 38.000,384.464 37.820,384.600 37.600 C 384.736 37.380,384.612 37.198,384.324 37.197 C 384.036 37.195,383.137 36.565,382.327 35.797 C 381.516 35.028,380.571 34.400,380.227 34.400 C 379.882 34.400,379.600 34.220,379.600 34.000 C 379.600 33.780,379.240 33.600,378.800 33.600 C 378.360 33.600,378.000 33.420,378.000 33.200 C 378.000 32.980,377.739 32.800,377.420 32.800 C 377.101 32.800,376.656 32.485,376.432 32.100 C 376.208 31.715,376.019 31.608,376.012 31.862 C 375.998 32.390,374.009 31.635,374.003 31.100 C 374.001 30.935,373.651 30.800,373.224 30.800 C 372.797 30.800,372.348 30.640,372.227 30.444 C 372.106 30.249,371.421 29.992,370.704 29.873 C 367.641 29.367,365.816 28.847,365.680 28.440 C 365.430 27.689,34.749 27.865,34.084 28.617 M315.574 211.377 C 316.296 212.030,316.130 212.000,319.024 212.000 C 320.404 212.000,321.153 212.152,321.000 212.400 C 320.851 212.641,321.388 212.800,322.353 212.800 C 323.233 212.800,324.064 212.980,324.200 213.200 C 324.336 213.420,325.067 213.600,325.824 213.600 C 326.581 213.600,327.200 213.780,327.200 214.000 C 327.200 214.220,327.566 214.400,328.014 214.400 C 328.462 214.400,329.264 214.686,329.796 215.034 C 330.329 215.383,330.934 215.564,331.140 215.437 C 331.347 215.309,331.619 215.474,331.746 215.802 C 331.872 216.131,332.341 216.400,332.787 216.400 C 333.234 216.400,333.600 216.580,333.600 216.800 C 333.600 217.020,334.035 217.200,334.567 217.200 C 335.098 217.200,335.593 217.367,335.667 217.570 C 335.740 217.774,336.070 217.999,336.400 218.070 C 336.730 218.142,337.090 218.300,337.200 218.421 C 337.310 218.543,338.120 219.173,339.000 219.821 C 339.880 220.470,340.840 221.227,341.132 221.504 C 341.425 221.781,341.875 221.887,342.132 221.740 C 342.390 221.592,342.480 221.606,342.333 221.769 C 342.085 222.046,343.341 223.600,343.813 223.600 C 344.283 223.600,346.991 226.605,346.867 226.989 C 346.793 227.215,346.869 227.265,347.034 227.099 C 347.389 226.744,348.800 227.922,348.800 228.573 C 348.800 228.820,349.160 229.330,349.600 229.707 C 350.040 230.084,350.400 230.664,350.400 230.996 C 350.400 231.328,350.604 231.600,350.853 231.600 C 351.429 231.600,353.199 233.637,353.200 234.300 C 353.200 234.575,353.380 234.800,353.600 234.800 C 353.820 234.800,354.000 235.070,354.000 235.400 C 354.000 235.730,354.210 236.000,354.467 236.000 C 354.723 236.000,354.824 236.109,354.691 236.242 C 354.558 236.376,354.891 236.927,355.432 237.468 C 355.973 238.009,356.311 238.620,356.184 238.826 C 356.057 239.032,356.143 239.200,356.376 239.200 C 356.609 239.200,356.800 239.391,356.800 239.624 C 356.800 239.857,356.620 239.936,356.400 239.800 C 356.180 239.664,356.000 239.743,356.000 239.976 C 356.000 240.209,355.711 240.400,355.357 240.400 C 354.950 240.400,354.799 240.620,354.945 241.000 C 355.111 241.433,354.901 241.600,354.187 241.600 C 353.644 241.600,353.200 241.757,353.200 241.949 C 353.200 242.141,352.302 242.743,351.204 243.286 C 350.106 243.829,349.317 244.384,349.451 244.518 C 349.585 244.651,349.223 244.879,348.647 245.024 C 348.071 245.168,347.600 245.447,347.600 245.643 C 347.600 245.840,347.330 246.000,347.000 246.000 C 346.670 246.000,346.400 246.180,346.400 246.400 C 346.400 246.620,346.130 246.800,345.800 246.800 C 345.470 246.800,345.200 246.980,345.200 247.200 C 345.200 247.420,344.840 247.600,344.400 247.600 C 343.960 247.600,343.600 247.780,343.600 248.000 C 343.600 248.220,343.370 248.400,343.088 248.400 C 342.807 248.400,342.324 248.750,342.015 249.179 C 341.707 249.607,341.307 249.866,341.127 249.755 C 340.947 249.644,340.800 249.743,340.800 249.976 C 340.800 250.209,340.632 250.400,340.427 250.400 C 339.819 250.400,336.000 252.887,336.000 253.283 C 336.000 253.483,335.820 253.536,335.600 253.400 C 335.380 253.264,335.200 253.343,335.200 253.576 C 335.200 253.809,334.911 254.000,334.558 254.000 C 334.204 254.000,333.564 254.447,333.135 254.992 C 332.705 255.538,332.229 255.959,332.077 255.927 C 331.310 255.766,329.600 256.560,329.600 257.077 C 329.600 257.914,328.675 257.514,328.205 256.474 C 327.988 255.993,327.673 255.600,327.505 255.600 C 327.337 255.600,327.200 255.355,327.200 255.056 C 327.200 254.757,326.570 253.844,325.800 253.027 C 325.030 252.211,324.400 251.286,324.400 250.972 C 324.400 250.657,324.207 250.400,323.971 250.400 C 323.532 250.400,322.400 249.425,322.400 249.047 C 322.400 248.666,320.372 246.800,319.958 246.800 C 319.735 246.800,319.641 246.657,319.749 246.483 C 319.856 246.309,319.564 246.137,319.099 246.102 C 318.634 246.067,318.097 245.760,317.907 245.419 C 317.716 245.079,317.299 244.800,316.980 244.800 C 316.661 244.800,316.400 244.620,316.400 244.400 C 316.400 244.180,315.950 244.000,315.400 244.000 C 314.850 244.000,314.400 243.820,314.400 243.600 C 314.400 243.380,313.770 243.200,313.000 243.200 C 312.230 243.200,311.600 243.020,311.600 242.800 C 311.600 242.550,309.141 242.400,305.024 242.400 C 301.071 242.400,298.349 242.560,298.200 242.800 C 298.064 243.020,297.423 243.200,296.776 243.200 C 296.129 243.200,295.600 243.380,295.600 243.600 C 295.600 243.820,295.326 244.000,294.992 244.000 C 293.628 244.000,288.812 247.830,288.791 248.931 C 288.786 249.189,288.430 249.850,288.000 250.400 C 287.570 250.950,287.214 251.700,287.209 252.067 C 287.204 252.433,286.998 252.801,286.751 252.883 C 286.504 252.965,286.279 253.880,286.251 254.916 C 286.223 255.952,286.054 256.799,285.876 256.800 C 285.698 256.800,285.664 256.980,285.800 257.200 C 285.936 257.420,285.837 257.600,285.579 257.600 C 285.111 257.600,285.364 260.098,285.924 260.997 C 286.062 261.219,286.201 262.073,286.234 262.895 C 286.267 263.718,286.465 264.618,286.675 264.895 C 286.884 265.173,287.297 266.165,287.592 267.100 C 287.887 268.035,288.267 268.800,288.437 268.800 C 288.607 268.800,288.854 269.140,288.986 269.555 C 289.326 270.626,290.919 272.257,291.943 272.582 C 292.421 272.734,292.708 273.025,292.582 273.229 C 292.456 273.433,292.551 273.600,292.793 273.600 C 293.035 273.600,293.621 273.961,294.094 274.402 C 294.567 274.843,295.744 275.586,296.710 276.053 C 297.675 276.520,298.559 277.149,298.675 277.451 C 298.791 277.753,299.316 278.000,299.843 278.000 C 300.369 278.000,300.800 278.180,300.800 278.400 C 300.800 278.620,301.160 278.800,301.600 278.800 C 302.040 278.800,302.400 278.980,302.400 279.200 C 302.400 279.420,302.760 279.600,303.200 279.600 C 303.640 279.600,304.000 279.780,304.000 280.000 C 304.000 280.220,304.450 280.400,305.000 280.400 C 305.550 280.400,306.000 280.631,306.000 280.913 C 306.000 281.195,306.487 281.466,307.082 281.515 C 307.678 281.564,308.344 281.784,308.562 282.002 C 308.781 282.221,309.284 282.400,309.680 282.400 C 310.076 282.400,310.400 282.580,310.400 282.800 C 310.400 283.020,310.850 283.200,311.400 283.200 C 311.950 283.200,312.400 283.380,312.400 283.600 C 312.400 283.820,312.861 284.000,313.424 284.000 C 313.987 284.000,314.339 284.175,314.207 284.388 C 314.075 284.602,314.470 284.887,315.084 285.022 C 315.698 285.157,316.470 285.376,316.800 285.511 C 317.453 285.776,317.917 285.883,318.724 285.954 C 319.012 285.979,319.136 286.180,319.000 286.400 C 318.864 286.620,319.123 286.800,319.576 286.800 C 320.029 286.800,320.400 286.980,320.400 287.200 C 320.400 287.420,320.762 287.600,321.205 287.600 C 321.648 287.600,322.323 287.757,322.705 287.950 C 323.087 288.142,324.138 288.679,325.041 289.142 C 325.943 289.606,326.798 289.868,326.941 289.726 C 327.083 289.583,327.200 289.677,327.200 289.933 C 327.200 290.190,327.470 290.400,327.800 290.400 C 328.130 290.400,328.400 290.591,328.400 290.824 C 328.400 291.057,328.565 291.145,328.768 291.020 C 328.970 290.895,329.407 291.064,329.739 291.396 C 330.071 291.728,330.611 292.000,330.938 292.000 C 331.265 292.000,331.597 292.190,331.674 292.422 C 331.751 292.654,332.081 292.901,332.407 292.972 C 333.590 293.229,335.600 294.183,335.600 294.488 C 335.600 294.659,335.855 294.800,336.167 294.800 C 336.478 294.800,336.793 294.935,336.867 295.100 C 336.940 295.265,337.630 295.740,338.400 296.156 C 339.170 296.573,340.467 297.277,341.283 297.722 C 342.099 298.167,342.673 298.681,342.560 298.865 C 342.446 299.049,342.743 299.200,343.219 299.200 C 343.695 299.200,344.439 299.650,344.871 300.200 C 345.304 300.750,345.915 301.200,346.229 301.200 C 346.543 301.200,346.800 301.380,346.800 301.600 C 346.800 301.820,347.070 302.000,347.400 302.000 C 347.730 302.000,348.000 302.180,348.000 302.400 C 348.000 302.620,348.281 302.800,348.624 302.800 C 348.967 302.800,349.156 302.947,349.045 303.127 C 348.934 303.306,349.377 303.768,350.029 304.153 C 350.688 304.543,351.095 305.047,350.945 305.289 C 350.792 305.537,350.861 305.610,351.107 305.458 C 351.576 305.168,356.000 309.235,356.000 309.957 C 356.000 310.201,356.168 310.400,356.374 310.400 C 356.580 310.400,357.148 311.111,357.636 311.979 C 358.125 312.848,358.717 313.523,358.953 313.479 C 359.188 313.436,359.447 313.834,359.527 314.365 C 359.639 315.107,359.755 315.200,360.030 314.765 C 360.302 314.335,360.389 314.416,360.394 315.100 C 360.397 315.595,360.580 316.000,360.800 316.000 C 361.020 316.000,361.200 316.338,361.200 316.751 C 361.200 317.164,361.470 317.726,361.800 318.000 C 362.130 318.274,362.400 318.847,362.400 319.273 C 362.400 319.699,362.580 319.936,362.800 319.800 C 363.028 319.659,363.200 320.004,363.200 320.600 C 363.200 321.196,363.372 321.541,363.600 321.400 C 363.827 321.260,364.000 321.596,364.000 322.176 C 364.000 322.739,364.180 323.200,364.400 323.200 C 364.620 323.200,364.800 323.830,364.800 324.600 C 364.800 325.370,364.946 326.000,365.124 326.000 C 365.303 326.000,365.696 326.945,365.999 328.100 C 366.540 330.168,366.596 330.488,366.732 332.324 C 366.769 332.832,366.980 333.136,367.200 333.000 C 367.555 332.781,367.837 337.919,367.621 340.662 C 367.583 341.136,367.743 341.641,367.976 341.785 C 368.522 342.123,368.544 348.400,368.000 348.400 C 367.767 348.400,367.600 349.724,367.600 351.571 C 367.600 353.784,367.428 354.915,367.029 355.313 C 366.716 355.627,366.486 356.495,366.520 357.242 C 366.576 358.505,366.034 360.452,365.167 362.095 C 364.965 362.477,364.800 363.252,364.800 363.818 C 364.800 364.402,364.627 364.740,364.400 364.600 C 364.180 364.464,364.000 364.696,364.000 365.115 C 364.000 365.981,362.939 368.267,362.375 368.616 C 362.169 368.743,362.000 369.197,362.000 369.624 C 362.000 370.051,361.850 370.400,361.668 370.400 C 361.485 370.400,361.080 370.892,360.768 371.493 C 360.455 372.094,359.750 373.008,359.200 373.525 C 358.650 374.042,358.470 374.345,358.800 374.198 C 359.130 374.052,358.815 374.485,358.100 375.160 C 357.385 375.836,356.800 376.490,356.800 376.614 C 356.800 377.137,350.262 383.194,349.181 383.673 C 348.531 383.960,348.000 384.421,348.000 384.698 C 348.000 384.974,347.730 385.200,347.400 385.200 C 347.070 385.200,346.799 385.335,346.797 385.500 C 346.793 385.859,344.856 386.800,344.120 386.800 C 343.834 386.800,343.600 386.937,343.600 387.105 C 343.600 387.273,343.263 387.588,342.852 387.805 C 342.441 388.022,341.354 388.612,340.438 389.115 C 339.522 389.618,338.599 389.923,338.386 389.792 C 338.174 389.660,338.000 389.743,338.000 389.976 C 338.000 390.209,337.640 390.400,337.200 390.400 C 336.760 390.400,336.400 390.580,336.400 390.800 C 336.400 391.020,336.031 391.200,335.580 391.200 C 335.129 391.200,334.252 391.463,333.631 391.784 C 333.010 392.105,332.389 392.255,332.251 392.117 C 332.113 391.979,331.997 392.122,331.994 392.433 C 331.989 392.900,331.919 392.894,331.600 392.400 C 331.269 391.887,331.211 391.902,331.206 392.500 C 331.203 392.885,330.975 393.214,330.700 393.231 C 328.170 393.387,324.816 394.051,324.573 394.444 C 324.452 394.640,323.454 394.800,322.357 394.800 C 321.259 394.800,319.874 395.038,319.280 395.328 C 317.905 396.001,294.336 395.974,293.515 395.300 C 293.232 395.067,291.920 394.786,290.600 394.676 C 289.280 394.566,287.660 394.374,287.000 394.250 C 286.340 394.125,285.317 393.980,284.728 393.928 C 284.138 393.877,283.744 393.691,283.851 393.517 C 283.959 393.343,283.443 393.200,282.704 393.200 C 281.965 393.200,281.181 393.021,280.962 392.802 C 280.744 392.584,280.066 392.363,279.457 392.313 C 278.848 392.263,278.159 391.992,277.926 391.711 C 277.693 391.430,277.175 391.200,276.775 391.200 C 276.375 391.200,275.936 391.020,275.800 390.800 C 275.664 390.580,275.134 390.400,274.622 390.400 C 274.110 390.400,273.189 390.139,272.574 389.820 C 271.960 389.502,271.344 389.311,271.206 389.397 C 271.067 389.482,270.624 389.113,270.221 388.576 C 269.818 388.039,269.164 387.600,268.768 387.600 C 268.371 387.600,267.926 387.404,267.778 387.165 C 267.631 386.926,267.156 386.823,266.723 386.936 C 266.209 387.070,266.002 386.972,266.124 386.653 C 266.232 386.371,265.951 386.136,265.462 386.100 C 264.994 386.064,264.549 385.848,264.473 385.618 C 264.396 385.388,263.988 385.200,263.567 385.200 C 263.145 385.200,262.800 384.930,262.800 384.600 C 262.800 384.270,262.530 384.000,262.200 384.000 C 261.870 384.000,261.600 383.820,261.600 383.600 C 261.600 383.380,261.364 383.200,261.075 383.200 C 260.787 383.200,260.164 382.840,259.692 382.400 C 259.220 381.960,258.665 381.600,258.460 381.600 C 258.254 381.600,257.978 381.319,257.846 380.975 C 257.714 380.631,257.424 380.461,257.203 380.598 C 256.981 380.735,256.800 380.556,256.800 380.200 C 256.800 379.844,256.619 379.665,256.397 379.802 C 256.176 379.939,255.891 379.781,255.764 379.451 C 255.637 379.121,255.271 378.951,254.951 379.074 C 254.630 379.197,254.420 379.116,254.484 378.893 C 254.613 378.442,252.896 376.800,252.296 376.800 C 252.086 376.800,252.022 376.521,252.153 376.179 C 252.284 375.838,252.225 375.661,252.022 375.787 C 251.818 375.912,250.966 375.176,250.126 374.152 C 249.287 373.127,248.015 371.689,247.300 370.958 C 246.585 370.226,246.000 369.518,246.000 369.385 C 246.000 369.252,245.775 368.910,245.500 368.625 C 244.324 367.406,243.360 366.110,242.800 364.994 C 242.470 364.337,241.973 363.560,241.696 363.268 C 241.419 362.975,241.295 362.570,241.420 362.368 C 241.545 362.165,241.470 362.000,241.253 362.000 C 241.036 362.000,240.575 361.432,240.229 360.739 C 239.555 359.387,239.379 357.816,239.941 358.164 C 240.129 358.280,240.624 358.116,241.041 357.800 C 241.458 357.484,242.126 357.220,242.524 357.213 C 242.922 357.206,243.136 357.020,243.000 356.800 C 242.864 356.580,243.020 356.400,243.346 356.400 C 243.672 356.400,244.473 355.950,245.127 355.400 C 245.781 354.850,246.605 354.400,246.958 354.400 C 247.311 354.400,247.600 354.220,247.600 354.000 C 247.600 353.780,247.960 353.600,248.400 353.600 C 248.840 353.600,249.200 353.420,249.200 353.200 C 249.200 352.980,249.560 352.800,250.000 352.800 C 250.440 352.800,250.800 352.620,250.800 352.400 C 250.800 352.180,251.051 352.000,251.357 352.000 C 251.664 352.000,252.018 351.730,252.145 351.400 C 252.271 351.070,252.741 350.800,253.187 350.800 C 253.634 350.800,254.000 350.620,254.000 350.400 C 254.000 350.180,254.281 350.000,254.624 350.000 C 254.967 350.000,255.136 349.820,255.000 349.600 C 254.864 349.380,255.123 349.200,255.576 349.200 C 256.029 349.200,256.400 349.020,256.400 348.800 C 256.400 348.580,256.850 348.400,257.400 348.400 C 257.950 348.400,258.400 348.242,258.400 348.049 C 258.400 347.855,258.940 347.473,259.600 347.200 C 260.260 346.927,260.800 346.526,260.800 346.309 C 260.800 346.092,261.079 346.022,261.421 346.153 C 261.777 346.289,261.937 346.222,261.797 345.995 C 261.663 345.778,261.818 345.600,262.143 345.600 C 262.468 345.600,262.793 345.433,262.867 345.230 C 262.940 345.026,263.266 344.801,263.590 344.730 C 263.915 344.658,264.425 344.373,264.723 344.096 C 265.021 343.819,265.410 343.682,265.587 343.792 C 265.764 343.902,266.140 343.713,266.422 343.374 C 267.646 341.899,268.316 341.919,269.365 343.462 C 269.915 344.271,270.269 345.088,270.153 345.277 C 270.036 345.465,270.150 345.570,270.405 345.510 C 270.661 345.449,271.189 345.980,271.579 346.689 C 271.969 347.398,272.403 347.863,272.544 347.723 C 272.774 347.492,272.956 348.167,272.855 348.876 C 272.834 349.027,273.128 349.252,273.508 349.374 C 273.889 349.497,274.830 350.350,275.600 351.270 C 277.900 354.016,280.300 356.400,280.764 356.400 C 281.004 356.400,281.200 356.580,281.200 356.800 C 281.200 357.020,281.590 357.200,282.067 357.200 C 282.543 357.200,282.814 357.319,282.669 357.464 C 282.381 357.752,283.042 358.173,286.400 359.842 C 287.610 360.444,288.660 361.085,288.733 361.268 C 288.807 361.451,289.257 361.606,289.733 361.613 C 290.210 361.620,290.949 361.890,291.376 362.213 C 291.804 362.536,292.659 362.800,293.276 362.800 C 293.894 362.800,294.400 362.980,294.400 363.200 C 294.400 363.420,295.174 363.600,296.120 363.600 C 297.066 363.600,298.082 363.825,298.379 364.100 C 298.817 364.507,298.855 364.488,298.582 364.000 C 298.299 363.493,298.346 363.481,298.889 363.920 C 299.634 364.524,312.942 364.553,312.569 363.950 C 312.450 363.758,313.263 363.600,314.376 363.600 C 315.489 363.600,316.400 363.420,316.400 363.200 C 316.400 362.980,316.535 362.821,316.700 362.847 C 317.690 363.004,318.825 362.717,319.367 362.175 C 319.711 361.832,320.354 361.524,320.796 361.490 C 321.238 361.457,321.600 361.288,321.600 361.115 C 321.600 360.942,321.870 360.800,322.200 360.800 C 322.530 360.800,322.800 360.609,322.800 360.376 C 322.800 360.143,322.973 360.059,323.184 360.190 C 323.395 360.320,324.089 359.881,324.727 359.213 C 325.365 358.546,326.047 357.999,326.243 357.999 C 326.439 357.998,326.960 357.459,327.400 356.800 C 327.840 356.141,328.335 355.602,328.500 355.601 C 328.665 355.601,328.800 355.311,328.800 354.957 C 328.800 354.573,329.024 354.400,329.355 354.527 C 329.730 354.671,329.850 354.515,329.727 354.042 C 329.627 353.658,329.827 353.110,330.172 352.823 C 330.517 352.537,330.800 351.964,330.800 351.551 C 330.800 351.138,330.980 350.800,331.200 350.800 C 331.422 350.800,331.600 349.744,331.600 348.433 C 331.600 347.118,331.789 346.004,332.025 345.925 C 332.322 345.826,332.325 345.455,332.035 344.692 C 331.807 344.092,331.588 342.605,331.548 341.386 C 331.508 340.167,331.324 339.076,331.138 338.962 C 330.952 338.847,330.800 338.313,330.800 337.776 C 330.800 337.209,330.591 336.842,330.300 336.900 C 330.025 336.955,329.848 336.705,329.907 336.346 C 329.966 335.986,329.741 335.586,329.407 335.458 C 329.073 335.330,328.800 334.982,328.800 334.685 C 328.800 333.963,326.315 331.200,325.666 331.200 C 325.384 331.200,325.247 331.047,325.363 330.860 C 325.478 330.673,325.129 330.283,324.586 329.993 C 324.044 329.702,323.600 329.315,323.600 329.132 C 323.600 328.950,323.330 328.800,323.000 328.800 C 322.670 328.800,322.400 328.620,322.400 328.400 C 322.400 328.180,322.040 328.000,321.600 328.000 C 321.160 328.000,320.800 327.820,320.800 327.600 C 320.800 327.380,320.440 327.200,320.000 327.200 C 319.560 327.200,319.200 327.048,319.200 326.861 C 319.200 326.400,314.545 323.988,314.242 324.292 C 314.109 324.425,314.000 324.323,314.000 324.067 C 314.000 323.810,313.728 323.600,313.395 323.600 C 313.062 323.600,312.477 323.433,312.095 323.229 C 311.713 323.025,311.074 322.757,310.675 322.632 C 310.276 322.508,310.038 322.263,310.146 322.088 C 310.254 321.913,309.860 321.730,309.271 321.681 C 308.682 321.633,308.140 321.415,308.067 321.197 C 307.993 320.978,307.408 320.800,306.767 320.800 C 306.125 320.800,305.600 320.620,305.600 320.400 C 305.600 320.180,305.330 320.000,305.000 320.000 C 304.670 320.000,304.400 319.820,304.400 319.600 C 304.400 319.380,304.074 319.200,303.676 319.200 C 303.279 319.200,302.604 318.936,302.176 318.613 C 301.749 318.290,301.085 318.020,300.700 318.013 C 300.315 318.006,300.000 317.820,300.000 317.600 C 300.000 317.380,299.865 317.239,299.700 317.287 C 299.177 317.438,295.600 316.239,295.600 315.913 C 295.600 315.741,295.240 315.600,294.800 315.600 C 294.360 315.600,294.000 315.423,294.000 315.208 C 294.000 314.992,293.551 314.703,293.003 314.565 C 292.454 314.427,292.105 314.154,292.226 313.957 C 292.412 313.656,290.905 313.394,289.900 313.553 C 289.735 313.579,289.600 313.420,289.600 313.200 C 289.600 312.980,289.240 312.800,288.800 312.800 C 288.360 312.800,288.000 312.620,288.000 312.400 C 288.000 312.180,287.550 312.000,287.000 312.000 C 286.361 312.000,286.000 311.775,286.000 311.376 C 286.000 311.033,285.832 310.856,285.628 310.983 C 285.297 311.187,283.066 309.942,281.700 308.790 C 281.425 308.558,281.200 308.486,281.200 308.630 C 281.200 308.774,280.756 308.601,280.214 308.246 C 279.672 307.891,278.995 307.600,278.709 307.600 C 278.423 307.600,277.852 307.150,277.439 306.600 C 277.026 306.050,276.353 305.600,275.944 305.600 C 275.535 305.600,275.200 305.420,275.200 305.200 C 275.200 304.980,274.952 304.800,274.649 304.800 C 274.346 304.800,273.867 304.522,273.585 304.182 C 273.303 303.842,272.840 303.653,272.556 303.761 C 272.233 303.885,272.124 303.743,272.263 303.380 C 272.401 303.022,272.240 302.800,271.843 302.800 C 271.489 302.800,271.200 302.620,271.200 302.400 C 271.200 302.180,270.930 302.000,270.600 302.000 C 270.270 302.000,270.000 301.850,270.000 301.668 C 270.000 301.485,269.556 301.098,269.014 300.807 C 268.471 300.517,268.122 300.127,268.237 299.940 C 268.353 299.753,268.241 299.600,267.988 299.600 C 267.434 299.600,262.000 294.147,262.000 293.592 C 262.000 293.376,261.763 293.200,261.474 293.200 C 261.184 293.200,260.523 292.435,260.003 291.500 C 259.484 290.565,258.948 289.710,258.811 289.600 C 258.286 289.179,256.800 286.857,256.800 286.459 C 256.800 286.229,256.350 285.556,255.800 284.962 C 255.219 284.335,254.800 283.405,254.800 282.742 C 254.800 282.114,254.620 281.600,254.400 281.600 C 254.180 281.600,254.000 281.276,254.000 280.880 C 254.000 280.484,253.826 279.986,253.613 279.773 C 253.401 279.561,253.182 278.800,253.128 278.084 C 253.066 277.271,252.850 276.849,252.553 276.963 C 252.222 277.090,252.097 276.558,252.139 275.205 C 252.174 274.101,252.028 273.295,251.800 273.333 C 251.580 273.370,251.344 272.414,251.276 271.209 C 251.208 270.004,250.981 268.912,250.772 268.783 C 250.552 268.647,250.405 265.284,250.422 260.774 C 250.458 251.432,250.450 251.600,250.867 251.600 C 251.050 251.600,251.200 250.700,251.200 249.600 C 251.200 248.270,251.367 247.598,251.700 247.594 C 252.033 247.590,252.000 247.458,251.600 247.200 C 251.200 246.942,251.167 246.810,251.500 246.806 C 251.775 246.803,252.000 246.363,252.000 245.829 C 252.000 245.294,252.225 244.619,252.500 244.329 C 252.775 244.038,253.061 243.350,253.135 242.800 C 253.209 242.250,253.434 241.629,253.635 241.420 C 253.836 241.211,254.000 240.615,254.000 240.096 C 254.000 239.569,254.177 239.262,254.400 239.400 C 254.620 239.536,254.800 239.304,254.800 238.885 C 254.800 237.864,255.809 235.897,256.788 235.011 C 257.224 234.616,257.484 234.136,257.365 233.944 C 257.246 233.752,257.430 233.487,257.772 233.355 C 258.115 233.224,258.296 232.955,258.174 232.758 C 258.052 232.561,258.154 232.400,258.400 232.400 C 258.646 232.400,258.736 232.220,258.600 232.000 C 258.464 231.780,258.543 231.600,258.776 231.600 C 259.009 231.600,259.200 231.330,259.200 231.000 C 259.200 230.670,259.425 230.399,259.700 230.397 C 259.975 230.396,260.597 229.811,261.083 229.097 C 262.600 226.870,266.565 223.098,266.967 223.500 C 267.095 223.628,267.200 223.498,267.200 223.211 C 267.200 222.561,268.386 221.630,269.236 221.613 C 269.585 221.606,270.077 221.149,270.328 220.598 C 270.580 220.046,270.923 219.628,271.093 219.667 C 271.664 219.802,273.577 218.686,273.364 218.342 C 273.248 218.154,273.493 218.000,273.909 218.000 C 274.900 218.000,278.459 216.192,278.125 215.859 C 277.983 215.716,278.424 215.600,279.105 215.600 C 279.786 215.600,280.613 215.330,280.943 215.000 C 281.273 214.670,282.016 214.400,282.595 214.400 C 283.195 214.400,283.541 214.228,283.400 214.000 C 283.253 213.762,283.729 213.600,284.576 213.600 C 285.359 213.600,286.000 213.443,286.000 213.252 C 286.000 213.061,286.832 212.810,287.849 212.696 C 288.867 212.581,289.812 212.325,289.949 212.127 C 290.087 211.930,291.083 211.782,292.163 211.800 C 293.243 211.817,294.323 211.617,294.563 211.355 C 295.255 210.601,314.739 210.621,315.574 211.377 M216.465 276.300 C 216.501 311.225,216.552 342.211,216.578 345.157 C 216.610 348.775,216.462 350.831,216.121 351.488 C 215.843 352.023,215.636 353.346,215.660 354.427 C 215.684 355.508,215.522 356.619,215.300 356.896 C 215.077 357.173,214.792 358.030,214.666 358.800 C 214.176 361.806,213.886 363.017,213.558 363.431 C 213.370 363.669,213.154 364.268,213.078 364.764 C 213.003 365.260,212.774 365.786,212.570 365.933 C 212.367 366.080,212.138 366.650,212.062 367.200 C 211.986 367.750,211.761 368.260,211.562 368.333 C 211.363 368.407,211.200 368.912,211.200 369.457 C 211.200 370.015,211.026 370.339,210.800 370.200 C 210.580 370.064,210.400 370.323,210.400 370.776 C 210.400 371.229,210.220 371.600,210.000 371.600 C 209.780 371.600,209.600 371.797,209.600 372.038 C 209.600 372.279,209.195 373.037,208.700 373.723 C 208.205 374.408,207.491 375.606,207.114 376.385 C 206.736 377.163,206.416 377.620,206.401 377.400 C 206.387 377.180,206.190 377.319,205.963 377.708 C 205.736 378.098,205.377 378.310,205.166 378.179 C 204.954 378.048,204.806 378.089,204.837 378.270 C 204.978 379.080,204.767 379.627,204.400 379.400 C 204.180 379.264,204.000 379.442,204.000 379.795 C 204.000 380.502,202.274 382.400,201.631 382.400 C 201.408 382.400,201.332 382.677,201.462 383.016 C 201.592 383.355,201.541 383.597,201.349 383.553 C 200.429 383.342,198.000 385.152,198.000 386.049 C 198.000 386.228,197.700 386.260,197.334 386.119 C 196.887 385.948,196.764 386.017,196.958 386.332 C 197.130 386.610,197.003 386.800,196.644 386.800 C 196.313 386.800,195.559 387.247,194.970 387.793 C 194.381 388.338,193.762 388.700,193.595 388.597 C 193.428 388.493,193.068 388.677,192.796 389.004 C 192.524 389.332,191.964 389.600,191.551 389.600 C 191.138 389.600,190.800 389.780,190.800 390.000 C 190.800 390.220,190.451 390.400,190.024 390.400 C 189.597 390.400,189.136 390.580,189.000 390.800 C 188.864 391.020,188.303 391.200,187.753 391.200 C 187.203 391.200,186.857 391.368,186.984 391.574 C 187.111 391.780,186.627 392.005,185.908 392.074 C 185.124 392.150,184.640 392.400,184.700 392.700 C 184.768 393.042,184.222 393.200,182.976 393.200 C 181.973 393.200,181.242 393.344,181.351 393.520 C 181.459 393.696,180.900 393.884,180.109 393.937 C 179.317 393.990,178.473 394.156,178.234 394.306 C 177.681 394.652,176.991 394.769,175.000 394.856 C 174.120 394.894,173.301 395.074,173.181 395.255 C 173.061 395.436,171.351 395.639,169.381 395.705 C 167.411 395.772,165.587 395.958,165.328 396.119 C 165.068 396.281,164.744 396.233,164.608 396.013 C 164.357 395.607,162.400 395.590,162.400 395.994 C 162.400 396.115,161.725 396.158,160.900 396.090 C 160.075 396.021,157.429 395.880,155.019 395.775 C 152.610 395.671,150.540 395.441,150.419 395.265 C 150.299 395.089,149.211 394.896,148.002 394.837 C 146.793 394.779,145.713 394.611,145.602 394.465 C 145.361 394.148,144.949 394.062,143.073 393.936 C 142.291 393.883,141.741 393.696,141.849 393.520 C 141.958 393.344,141.394 393.200,140.595 393.200 C 139.796 393.200,138.871 392.928,138.539 392.596 C 138.207 392.264,137.743 392.112,137.507 392.257 C 137.271 392.403,136.881 392.270,136.639 391.961 C 136.398 391.652,135.480 391.158,134.600 390.863 C 131.859 389.943,130.800 389.420,130.800 388.987 C 130.800 388.758,130.411 388.541,129.936 388.505 C 129.461 388.469,128.946 388.236,128.791 387.986 C 128.637 387.736,128.351 387.520,128.155 387.505 C 127.702 387.472,124.641 385.491,124.474 385.122 C 124.405 384.970,124.060 384.955,123.709 385.090 C 123.340 385.232,123.172 385.169,123.312 384.943 C 123.591 384.491,121.920 382.400,121.280 382.400 C 121.046 382.400,119.832 381.410,118.582 380.200 C 117.333 378.990,116.140 378.000,115.932 378.000 C 115.723 378.000,115.665 377.819,115.802 377.597 C 115.939 377.376,115.770 377.087,115.428 376.955 C 115.085 376.824,114.896 376.569,115.007 376.389 C 115.118 376.209,114.663 375.672,113.996 375.197 C 113.328 374.722,112.381 373.603,111.891 372.712 C 110.401 370.001,110.087 369.502,109.713 369.246 C 109.516 369.111,109.118 368.415,108.829 367.700 C 108.540 366.985,108.145 366.400,107.951 366.400 C 107.758 366.400,107.600 366.040,107.600 365.600 C 107.600 365.160,107.441 364.800,107.247 364.800 C 106.584 364.800,106.388 363.019,107.000 362.560 C 107.323 362.319,107.470 362.004,107.327 361.860 C 107.184 361.717,107.346 361.600,107.688 361.600 C 108.029 361.600,108.824 361.331,109.454 361.002 C 110.084 360.674,110.420 360.403,110.200 360.400 C 109.980 360.397,110.316 360.126,110.946 359.798 C 111.576 359.469,112.335 359.200,112.632 359.200 C 112.929 359.200,113.363 358.842,113.597 358.405 C 113.832 357.967,114.468 357.498,115.012 357.361 C 115.555 357.225,116.000 356.953,116.000 356.757 C 116.000 356.560,116.249 356.400,116.554 356.400 C 117.312 356.400,119.239 355.372,118.975 355.109 C 118.858 354.992,119.221 354.781,119.781 354.640 C 120.342 354.500,120.800 354.208,120.800 353.992 C 120.800 353.777,121.160 353.600,121.600 353.600 C 122.040 353.600,122.400 353.420,122.400 353.200 C 122.400 352.980,122.588 352.800,122.817 352.800 C 123.046 352.800,123.574 352.485,123.990 352.100 C 124.406 351.715,125.433 351.042,126.273 350.604 C 127.113 350.166,127.908 349.659,128.040 349.477 C 128.172 349.296,128.535 349.109,128.847 349.064 C 129.606 348.952,132.400 347.210,132.400 346.848 C 132.400 346.009,135.338 345.501,135.855 346.249 C 136.140 346.662,136.604 347.265,136.886 347.590 C 137.168 347.914,137.347 348.409,137.282 348.690 C 137.218 348.970,137.331 349.200,137.534 349.200 C 137.737 349.200,138.127 349.740,138.400 350.400 C 138.673 351.060,139.043 351.600,139.222 351.600 C 139.400 351.600,139.653 351.936,139.783 352.346 C 139.913 352.756,140.897 354.061,141.970 355.246 C 143.290 356.704,143.772 357.502,143.460 357.717 C 143.147 357.932,143.191 358.013,143.600 357.969 C 144.754 357.846,145.200 358.004,145.200 358.536 C 145.200 358.830,145.650 359.277,146.200 359.527 C 146.750 359.778,147.200 360.167,147.200 360.391 C 147.200 360.616,147.560 360.800,148.000 360.800 C 148.440 360.800,148.800 360.980,148.800 361.200 C 148.800 361.420,149.141 361.600,149.557 361.600 C 149.974 361.600,150.401 361.825,150.507 362.100 C 150.752 362.737,153.652 363.573,156.059 363.701 C 157.082 363.756,157.854 363.907,157.774 364.038 C 157.573 364.369,163.930 364.204,164.263 363.870 C 164.412 363.721,165.313 363.600,166.267 363.600 C 167.220 363.600,168.000 363.412,168.000 363.182 C 168.000 362.953,168.225 362.794,168.500 362.830 C 169.852 363.005,170.800 362.746,170.800 362.200 C 170.800 361.870,171.072 361.600,171.405 361.600 C 172.206 361.600,173.611 360.793,174.539 359.800 C 174.951 359.360,175.429 359.039,175.604 359.087 C 175.778 359.134,176.031 358.729,176.168 358.187 C 176.304 357.644,176.592 357.200,176.808 357.200 C 177.023 357.200,177.200 356.919,177.200 356.576 C 177.200 356.233,177.380 356.064,177.600 356.200 C 177.820 356.336,178.000 356.087,178.000 355.647 C 178.000 355.207,178.180 354.736,178.400 354.600 C 178.620 354.464,178.800 353.997,178.800 353.562 C 178.800 353.128,179.115 352.290,179.500 351.701 C 180.049 350.862,180.071 350.705,179.600 350.974 C 179.112 351.253,179.093 351.217,179.500 350.779 C 179.775 350.482,180.000 349.556,180.000 348.720 C 180.000 347.884,180.194 347.200,180.430 347.200 C 180.680 347.200,180.832 346.488,180.793 345.500 C 180.756 344.565,180.743 314.325,180.763 278.300 L 180.800 212.800 198.600 212.800 L 216.400 212.800 216.465 276.300 " stroke="none" fill="#f4dc5c" fill-rule="evenodd"></path><path id="path1" d="M33.600 28.400 C 33.600 28.620,33.300 28.800,32.933 28.800 C 32.567 28.800,32.373 28.906,32.503 29.037 C 32.837 29.370,34.400 28.823,34.400 28.373 C 34.400 28.168,34.220 28.000,34.000 28.000 C 33.780 28.000,33.600 28.180,33.600 28.400 M365.600 28.373 C 365.600 28.823,367.163 29.370,367.497 29.037 C 367.627 28.906,367.433 28.800,367.067 28.800 C 366.700 28.800,366.400 28.620,366.400 28.400 C 366.400 28.180,366.220 28.000,366.000 28.000 C 365.780 28.000,365.600 28.168,365.600 28.373 M376.600 32.400 C 376.736 32.620,377.107 32.800,377.424 32.800 C 377.741 32.800,378.000 32.980,378.000 33.200 C 378.000 33.420,378.180 33.600,378.400 33.600 C 379.162 33.600,378.795 32.926,377.781 32.464 C 376.533 31.896,376.280 31.882,376.600 32.400 M16.000 36.600 C 15.624 37.054,15.619 37.200,15.980 37.200 C 16.242 37.200,16.727 36.930,17.057 36.600 C 17.572 36.085,17.575 36.000,17.078 36.000 C 16.759 36.000,16.274 36.270,16.000 36.600 M383.305 36.676 C 383.677 37.048,384.115 37.218,384.279 37.054 C 384.443 36.891,384.312 36.589,383.988 36.384 C 383.015 35.769,382.582 35.953,383.305 36.676 M391.332 44.100 C 391.370 45.089,392.400 45.764,392.400 44.800 C 392.400 44.580,392.233 44.400,392.029 44.400 C 391.825 44.400,391.576 44.085,391.474 43.700 C 391.372 43.315,391.308 43.495,391.332 44.100 M4.456 49.836 C 4.096 50.627,4.096 50.835,4.454 50.715 C 5.005 50.532,5.726 48.800,5.251 48.800 C 5.074 48.800,4.716 49.266,4.456 49.836 M394.901 49.483 C 394.970 50.391,396.008 51.570,395.987 50.716 C 395.980 50.432,395.720 49.864,395.409 49.453 C 394.859 48.727,394.844 48.727,394.901 49.483 M0.885 58.413 C 0.618 58.840,0.407 59.417,0.416 59.695 C 0.425 59.973,0.709 59.689,1.047 59.065 C 1.750 57.768,1.618 57.238,0.885 58.413 M294.476 211.457 C 293.869 212.107,295.167 212.269,295.820 211.625 C 296.029 211.419,297.010 211.177,298.000 211.088 C 299.472 210.954,299.361 210.924,297.391 210.919 C 295.873 210.916,294.795 211.115,294.476 211.457 M312.500 211.096 C 313.765 211.175,314.800 211.411,314.800 211.620 C 314.800 211.829,315.092 212.000,315.449 212.000 C 315.980 212.000,316.008 211.891,315.600 211.400 C 315.242 210.968,314.414 210.821,312.651 210.876 L 310.200 210.951 312.500 211.096 M290.000 211.971 C 290.000 212.175,289.685 212.424,289.300 212.524 C 288.773 212.662,288.823 212.719,289.500 212.754 C 290.054 212.782,290.400 212.569,290.400 212.200 C 290.400 211.870,290.310 211.600,290.200 211.600 C 290.090 211.600,290.000 211.767,290.000 211.971 M336.381 218.577 C 336.665 218.920,337.106 219.200,337.361 219.200 C 337.615 219.200,338.083 219.560,338.400 220.000 C 338.717 220.440,339.252 220.794,339.588 220.787 C 340.058 220.778,340.014 220.634,339.400 220.171 C 338.960 219.839,338.227 219.260,337.772 218.884 C 336.624 217.935,335.675 217.726,336.381 218.577 M272.176 219.387 C 271.749 219.710,271.580 219.975,271.800 219.975 C 272.020 219.975,272.549 219.710,272.976 219.387 C 273.404 219.064,273.573 218.800,273.353 218.800 C 273.133 218.800,272.604 219.064,272.176 219.387 M343.600 223.904 C 343.600 224.071,343.960 224.432,344.400 224.707 C 345.330 225.288,345.454 224.997,344.629 224.171 C 343.998 223.541,343.600 223.437,343.600 223.904 M263.416 226.248 C 260.939 228.908,261.112 229.326,263.643 226.795 C 264.766 225.672,265.584 224.650,265.459 224.525 C 265.334 224.401,264.415 225.176,263.416 226.248 M347.464 227.497 C 347.869 228.211,348.335 228.796,348.500 228.797 C 349.090 228.802,348.783 228.124,347.764 227.170 L 346.727 226.200 347.464 227.497 M256.400 235.400 C 255.885 235.948,255.609 236.533,255.787 236.698 C 255.964 236.864,256.191 236.772,256.290 236.493 C 256.390 236.214,256.747 235.710,257.083 235.374 C 257.420 235.037,257.615 234.681,257.516 234.583 C 257.417 234.484,256.915 234.852,256.400 235.400 M353.824 241.013 C 353.078 241.577,353.090 241.600,354.111 241.600 C 354.892 241.600,355.114 241.441,354.945 241.000 C 354.818 240.670,354.689 240.406,354.657 240.413 C 354.626 240.420,354.251 240.690,353.824 241.013 M252.243 244.633 C 252.109 244.981,252.000 245.611,252.000 246.033 C 252.000 246.455,251.775 246.803,251.500 246.806 C 251.134 246.811,251.146 246.905,251.545 247.158 C 252.006 247.449,252.006 247.533,251.545 247.697 C 251.245 247.803,251.145 248.045,251.322 248.234 C 251.801 248.745,252.387 247.579,252.394 246.100 C 252.397 245.385,252.580 244.800,252.800 244.800 C 253.020 244.800,253.200 244.620,253.200 244.400 C 253.200 243.767,252.511 243.935,252.243 244.633 M288.582 248.300 C 287.780 250.153,288.066 250.553,288.940 248.800 C 289.269 248.140,289.392 247.600,289.212 247.600 C 289.033 247.600,288.749 247.915,288.582 248.300 M322.400 248.800 C 322.400 249.051,322.670 249.527,323.000 249.857 C 323.367 250.224,323.600 250.279,323.600 250.000 C 323.600 249.749,323.330 249.273,323.000 248.943 C 322.633 248.576,322.400 248.521,322.400 248.800 M341.506 248.972 C 341.124 249.251,340.921 249.588,341.054 249.721 C 341.187 249.853,341.565 249.692,341.895 249.362 C 342.672 248.585,342.403 248.316,341.506 248.972 M325.216 252.423 C 325.695 253.096,326.172 253.561,326.276 253.458 C 326.546 253.188,325.182 251.200,324.727 251.200 C 324.517 251.200,324.737 251.750,325.216 252.423 M286.160 253.019 C 286.019 253.579,286.016 254.149,286.152 254.285 C 286.288 254.422,286.400 254.143,286.400 253.667 C 286.400 253.190,286.580 252.800,286.800 252.800 C 287.020 252.800,287.200 252.620,287.200 252.400 C 287.200 251.570,286.405 252.043,286.160 253.019 M335.400 252.988 C 334.740 253.529,334.425 253.978,334.700 253.986 C 334.975 253.994,335.200 253.809,335.200 253.576 C 335.200 253.343,335.335 253.225,335.500 253.313 C 335.665 253.401,336.115 253.142,336.500 252.737 C 337.510 251.674,336.807 251.834,335.400 252.988 M331.408 255.424 C 330.631 256.012,330.633 256.021,331.513 255.886 C 332.596 255.721,333.691 254.793,332.780 254.813 C 332.461 254.820,331.843 255.095,331.408 255.424 M285.467 255.867 C 285.040 256.293,285.159 257.600,285.624 257.600 C 285.857 257.600,285.936 257.420,285.800 257.200 C 285.664 256.980,285.713 256.800,285.910 256.800 C 286.106 256.800,286.267 256.530,286.267 256.200 C 286.267 255.567,285.913 255.420,285.467 255.867 M328.349 256.900 C 328.651 257.285,329.056 257.600,329.249 257.600 C 329.442 257.600,329.586 257.285,329.568 256.900 C 329.548 256.455,329.461 256.388,329.330 256.717 C 329.160 257.139,329.001 257.139,328.461 256.717 C 327.870 256.255,327.858 256.275,328.349 256.900 M285.246 259.867 C 285.183 261.060,285.606 262.044,286.061 261.762 C 286.297 261.616,286.298 261.355,286.062 261.064 C 285.855 260.809,285.598 260.240,285.489 259.800 C 285.306 259.052,285.290 259.057,285.246 259.867 M286.000 264.447 C 286.000 264.777,286.264 265.396,286.587 265.824 C 287.031 266.410,287.175 266.453,287.175 266.000 C 287.175 265.670,286.910 265.051,286.587 264.624 C 286.144 264.037,286.000 263.994,286.000 264.447 M250.400 268.000 C 250.400 268.440,250.542 268.800,250.715 268.800 C 250.888 268.800,251.057 268.440,251.090 268.000 C 251.123 267.560,250.981 267.200,250.775 267.200 C 250.569 267.200,250.400 267.560,250.400 268.000 M288.000 269.200 C 288.000 269.420,288.180 269.600,288.400 269.600 C 288.620 269.600,288.800 269.870,288.800 270.200 C 288.800 270.530,288.976 270.800,289.191 270.800 C 289.430 270.800,289.404 270.408,289.127 269.800 C 288.672 268.801,288.000 268.444,288.000 269.200 M251.213 272.620 C 251.206 272.851,251.370 273.211,251.579 273.420 C 251.787 273.629,252.001 274.546,252.054 275.458 C 252.126 276.678,252.297 277.061,252.703 276.905 C 253.093 276.755,253.129 276.569,252.827 276.267 C 252.592 276.032,252.400 275.370,252.400 274.796 C 252.400 273.824,251.241 271.699,251.213 272.620 M291.600 272.751 C 291.600 273.128,292.935 274.400,293.331 274.400 C 293.479 274.400,293.600 274.220,293.600 274.000 C 293.600 273.780,293.319 273.600,292.976 273.600 C 292.633 273.600,292.452 273.439,292.574 273.242 C 292.696 273.045,292.526 272.781,292.198 272.654 C 291.869 272.528,291.600 272.572,291.600 272.751 M297.000 276.800 C 297.136 277.020,297.517 277.200,297.847 277.200 C 298.177 277.200,298.336 277.020,298.200 276.800 C 298.064 276.580,297.683 276.400,297.353 276.400 C 297.023 276.400,296.864 276.580,297.000 276.800 M315.800 285.600 C 315.936 285.820,316.317 286.000,316.647 286.000 C 316.977 286.000,317.136 285.820,317.000 285.600 C 316.864 285.380,316.483 285.200,316.153 285.200 C 315.823 285.200,315.664 285.380,315.800 285.600 M257.445 287.812 C 257.810 288.369,258.186 288.747,258.282 288.651 C 258.519 288.414,257.484 286.800,257.095 286.800 C 256.922 286.800,257.080 287.256,257.445 287.812 M322.000 287.920 C 322.000 288.298,325.167 289.766,325.426 289.508 C 325.521 289.412,325.104 289.103,324.499 288.821 C 323.895 288.538,323.085 288.146,322.700 287.950 C 322.315 287.754,322.000 287.740,322.000 287.920 M259.603 290.700 C 259.606 291.057,261.194 293.508,261.197 293.161 C 261.199 293.030,260.917 292.355,260.571 291.661 C 259.962 290.441,259.597 290.079,259.603 290.700 M263.600 295.600 C 264.107 296.040,264.613 296.400,264.723 296.400 C 264.834 296.400,264.598 296.040,264.200 295.600 C 263.802 295.160,263.296 294.800,263.077 294.800 C 262.857 294.800,263.093 295.160,263.600 295.600 M349.600 304.359 C 349.600 304.572,349.918 304.847,350.306 304.970 C 350.694 305.093,352.065 306.285,353.352 307.618 C 354.639 308.951,355.788 309.945,355.906 309.827 C 356.150 309.584,351.399 304.935,350.312 304.353 C 349.857 304.110,349.600 304.112,349.600 304.359 M277.671 306.928 C 278.159 307.414,280.000 308.097,280.000 307.792 C 280.000 307.648,277.587 306.400,277.310 306.400 C 277.218 306.400,277.381 306.637,277.671 306.928 M284.400 310.600 C 284.674 310.930,285.078 311.200,285.298 311.200 C 285.521 311.200,285.478 310.935,285.200 310.600 C 284.926 310.270,284.522 310.000,284.302 310.000 C 284.079 310.000,284.122 310.265,284.400 310.600 M358.632 313.548 C 358.509 313.747,358.677 314.132,359.004 314.404 C 359.489 314.806,359.600 314.781,359.600 314.273 C 359.600 313.526,358.948 313.038,358.632 313.548 M294.700 315.482 C 295.195 315.578,295.600 315.823,295.600 316.028 C 295.600 316.233,295.870 316.400,296.200 316.400 C 296.530 316.400,296.800 316.241,296.800 316.047 C 296.800 315.659,295.348 315.183,294.400 315.260 C 294.070 315.287,294.205 315.387,294.700 315.482 M297.600 316.800 C 298.376 317.301,298.800 317.301,298.800 316.800 C 298.800 316.580,298.395 316.403,297.900 316.406 C 297.172 316.411,297.115 316.486,297.600 316.800 M302.176 318.613 C 302.604 318.936,303.264 319.200,303.643 319.200 C 304.023 319.200,304.424 319.425,304.535 319.700 C 304.693 320.092,304.744 320.089,304.768 319.687 C 304.786 319.406,304.485 319.077,304.100 318.958 C 303.715 318.839,303.087 318.575,302.705 318.371 C 301.640 317.802,301.306 317.954,302.176 318.613 M310.027 322.232 C 310.286 322.544,310.800 322.800,311.169 322.800 C 311.538 322.800,312.056 323.016,312.320 323.280 C 312.693 323.653,312.800 323.651,312.800 323.270 C 312.800 322.823,311.366 322.033,310.078 321.771 C 309.671 321.688,309.660 321.790,310.027 322.232 M319.055 326.600 C 319.182 326.930,319.661 327.200,320.119 327.200 C 320.938 327.200,320.939 327.190,320.176 326.613 C 319.172 325.853,318.767 325.848,319.055 326.600 M365.628 328.276 C 365.613 328.758,365.780 329.264,366.000 329.400 C 366.473 329.692,366.473 329.301,366.000 328.200 C 365.669 327.429,365.655 327.431,365.628 328.276 M328.427 333.274 C 328.357 333.984,329.236 335.599,329.690 335.594 C 330.014 335.590,330.050 335.481,329.789 335.294 C 329.563 335.132,329.170 334.550,328.916 334.000 C 328.662 333.450,328.442 333.123,328.427 333.274 M329.817 336.372 C 329.544 336.814,330.175 337.292,330.544 336.922 C 330.925 336.542,330.854 336.000,330.424 336.000 C 330.217 336.000,329.944 336.168,329.817 336.372 M267.406 342.546 C 266.718 343.050,266.756 343.089,267.894 343.046 C 268.833 343.011,269.030 342.880,268.716 342.500 C 268.211 341.890,268.308 341.886,267.406 342.546 M331.628 343.500 C 331.738 344.673,332.346 345.326,332.372 344.300 C 332.387 343.695,332.220 343.200,332.000 343.200 C 331.780 343.200,331.613 343.335,331.628 343.500 M133.134 346.269 C 132.768 346.366,132.368 346.707,132.245 347.027 C 132.054 347.524,132.196 347.519,133.211 346.994 C 134.860 346.141,134.826 345.821,133.134 346.269 M180.000 347.800 C 180.000 348.130,180.180 348.400,180.400 348.400 C 180.620 348.400,180.800 348.130,180.800 347.800 C 180.800 347.470,180.620 347.200,180.400 347.200 C 180.180 347.200,180.000 347.470,180.000 347.800 M256.400 348.800 C 256.400 349.020,256.670 349.200,257.000 349.200 C 257.330 349.200,257.600 349.020,257.600 348.800 C 257.600 348.580,257.330 348.400,257.000 348.400 C 256.670 348.400,256.400 348.580,256.400 348.800 M125.300 351.126 C 123.664 352.151,123.160 352.800,124.000 352.800 C 124.220 352.800,124.400 352.620,124.400 352.400 C 124.400 352.180,124.670 352.000,125.000 352.000 C 125.330 352.000,125.600 351.820,125.600 351.600 C 125.600 351.380,125.960 351.200,126.400 351.200 C 126.844 351.200,127.200 350.933,127.200 350.600 C 127.200 350.270,127.155 350.014,127.100 350.031 C 127.045 350.048,126.235 350.541,125.300 351.126 M252.267 351.067 C 252.120 351.213,252.003 351.528,252.006 351.767 C 252.010 352.060,252.107 352.053,252.306 351.746 C 252.468 351.497,252.960 351.203,253.400 351.093 C 254.174 350.899,254.173 350.891,253.367 350.846 C 252.908 350.821,252.413 350.920,252.267 351.067 M330.095 352.865 C 329.823 353.137,329.600 353.594,329.600 353.880 C 329.600 354.166,329.420 354.400,329.200 354.400 C 328.980 354.400,328.800 354.588,328.800 354.817 C 328.800 355.047,328.350 355.720,327.800 356.313 C 327.250 356.907,326.800 357.548,326.800 357.738 C 326.800 357.929,327.340 357.507,328.000 356.800 C 328.660 356.093,329.200 355.388,329.200 355.233 C 329.200 355.078,329.573 354.551,330.029 354.061 C 330.905 353.121,330.967 351.993,330.095 352.865 M119.427 354.759 C 119.001 354.926,118.823 355.167,119.031 355.296 C 119.239 355.424,119.756 355.275,120.181 354.965 C 121.010 354.359,120.679 354.269,119.427 354.759 M245.078 355.413 C 243.756 356.575,244.023 356.717,245.538 355.657 C 246.122 355.248,246.870 354.813,247.200 354.689 C 247.629 354.527,247.572 354.458,247.000 354.444 C 246.560 354.434,245.695 354.870,245.078 355.413 M142.123 356.166 C 142.385 356.731,142.744 357.195,142.919 357.197 C 143.095 357.199,143.680 357.676,144.219 358.258 C 144.784 358.868,145.184 359.080,145.162 358.758 C 145.142 358.451,144.342 357.511,143.386 356.669 C 141.841 355.310,141.700 355.254,142.123 356.166 M114.495 357.466 C 114.218 357.578,113.787 358.059,113.537 358.535 C 113.098 359.372,113.109 359.377,113.873 358.700 C 114.308 358.315,114.874 358.000,115.131 358.000 C 115.389 358.000,115.600 357.820,115.600 357.600 C 115.600 357.174,115.309 357.139,114.495 357.466 M176.243 357.833 C 175.867 358.811,175.949 358.908,176.600 358.257 C 177.280 357.577,177.367 357.200,176.843 357.200 C 176.646 357.200,176.376 357.485,176.243 357.833 M240.819 357.980 C 240.500 358.182,240.095 358.258,239.919 358.150 C 239.744 358.042,239.600 358.238,239.600 358.586 C 239.600 359.157,239.697 359.155,240.600 358.563 C 241.150 358.203,241.600 357.839,241.600 357.754 C 241.600 357.531,241.469 357.569,240.819 357.980 M325.384 358.427 C 325.239 358.661,325.216 358.949,325.333 359.067 C 325.620 359.353,326.400 358.848,326.400 358.376 C 326.400 357.865,325.709 357.899,325.384 358.427 M365.750 358.987 C 365.328 360.084,365.828 360.496,366.307 359.445 C 366.605 358.789,366.632 358.400,366.379 358.400 C 366.157 358.400,365.874 358.664,365.750 358.987 M110.865 359.822 C 110.350 360.090,110.082 360.404,110.269 360.519 C 110.619 360.736,112.276 359.716,111.971 359.471 C 111.877 359.396,111.379 359.554,110.865 359.822 M285.700 359.876 C 286.085 359.976,286.400 360.225,286.400 360.429 C 286.400 360.633,286.715 360.794,287.100 360.787 C 287.733 360.776,287.726 360.719,287.024 360.187 C 286.596 359.864,285.966 359.621,285.624 359.646 C 285.139 359.682,285.156 359.734,285.700 359.876 M149.692 362.075 C 149.779 362.336,150.064 362.621,150.325 362.708 C 150.618 362.806,150.707 362.623,150.557 362.233 C 150.278 361.506,149.452 361.355,149.692 362.075 M212.950 363.387 C 212.543 364.448,212.989 364.796,213.462 363.787 C 213.721 363.235,213.759 362.800,213.550 362.800 C 213.344 362.800,213.074 363.064,212.950 363.387 M156.000 364.100 C 156.000 364.265,156.349 364.400,156.776 364.400 C 157.203 364.400,157.636 364.265,157.738 364.100 C 157.840 363.935,157.491 363.800,156.962 363.800 C 156.433 363.800,156.000 363.935,156.000 364.100 M362.800 367.200 C 362.800 367.640,362.620 368.000,362.400 368.000 C 362.180 368.000,362.000 368.202,362.000 368.449 C 362.000 368.775,362.153 368.771,362.557 368.436 C 363.230 367.877,363.670 366.400,363.163 366.400 C 362.963 366.400,362.800 366.760,362.800 367.200 M244.893 368.000 C 245.362 368.751,246.000 369.080,246.000 368.571 C 246.000 368.273,244.925 367.200,244.625 367.200 C 244.498 367.200,244.618 367.560,244.893 368.000 M209.027 372.202 C 208.611 372.974,208.371 373.704,208.492 373.825 C 208.613 373.947,208.956 373.496,209.254 372.823 C 209.552 372.150,209.931 371.600,210.098 371.600 C 210.264 371.600,210.400 371.420,210.400 371.200 C 210.400 370.377,209.757 370.846,209.027 372.202 M111.614 371.871 C 111.649 372.673,112.772 374.206,112.786 373.471 C 112.794 373.071,112.530 372.473,112.200 372.143 C 111.870 371.813,111.606 371.691,111.614 371.871 M250.822 375.094 C 251.580 375.916,252.338 376.652,252.507 376.730 C 252.676 376.808,253.081 377.138,253.407 377.464 C 253.733 377.790,254.000 377.917,254.000 377.745 C 254.000 377.372,250.098 373.600,249.712 373.600 C 249.564 373.600,250.063 374.273,250.822 375.094 M358.600 374.000 C 358.736 374.220,358.676 374.400,358.466 374.400 C 358.257 374.400,357.969 374.705,357.826 375.078 C 357.596 375.677,357.659 375.671,358.373 375.024 C 359.072 374.392,359.171 373.600,358.553 373.600 C 358.443 373.600,358.464 373.780,358.600 374.000 M115.041 376.334 C 114.911 376.544,115.085 376.824,115.428 376.955 C 115.770 377.087,115.939 377.376,115.802 377.597 C 115.665 377.819,115.743 378.000,115.976 378.000 C 116.542 378.000,116.492 377.554,115.826 376.676 C 115.524 376.278,115.171 376.124,115.041 376.334 M116.800 378.266 C 116.800 378.408,117.520 379.231,118.400 380.093 C 119.967 381.629,120.728 381.703,119.249 380.175 C 118.105 378.994,116.800 377.977,116.800 378.266 M202.671 380.858 C 202.050 381.528,201.634 382.168,201.747 382.280 C 202.042 382.575,204.084 380.449,203.930 380.008 C 203.858 379.805,203.292 380.188,202.671 380.858 M200.225 383.031 C 199.803 383.340,199.576 383.709,199.720 383.853 C 199.863 383.996,200.227 383.910,200.527 383.660 C 200.828 383.411,201.192 383.325,201.337 383.470 C 201.482 383.615,201.600 383.534,201.600 383.290 C 201.600 382.548,201.032 382.441,200.225 383.031 M123.333 384.611 C 123.333 384.947,123.527 385.158,123.763 385.079 C 123.999 385.000,124.441 385.184,124.744 385.487 C 125.047 385.790,125.389 385.944,125.504 385.829 C 125.710 385.623,124.020 384.039,123.567 384.013 C 123.438 384.006,123.333 384.275,123.333 384.611 M262.800 384.800 C 262.800 385.020,263.160 385.200,263.600 385.200 C 264.040 385.200,264.400 385.410,264.400 385.667 C 264.400 385.923,264.535 385.999,264.699 385.834 C 264.864 385.669,264.650 385.279,264.223 384.967 C 263.312 384.301,262.800 384.241,262.800 384.800 M346.900 384.888 C 345.980 385.332,345.680 386.000,346.400 386.000 C 346.620 386.000,346.800 385.820,346.800 385.600 C 346.800 385.380,347.070 385.200,347.400 385.200 C 347.730 385.200,348.000 385.020,348.000 384.800 C 348.000 384.335,348.057 384.330,346.900 384.888 M195.613 386.691 C 195.089 387.282,195.103 387.323,195.746 387.076 C 196.142 386.924,196.641 386.800,196.856 386.800 C 197.071 386.800,197.136 386.620,197.000 386.400 C 196.657 385.845,196.298 385.921,195.613 386.691 M128.800 387.953 C 128.800 388.148,129.170 388.404,129.623 388.522 C 130.298 388.698,130.361 388.635,129.974 388.169 C 129.446 387.532,128.800 387.414,128.800 387.953 M192.875 388.416 C 192.394 388.864,192.000 389.342,192.000 389.478 C 192.000 389.613,192.379 389.381,192.842 388.962 C 193.305 388.543,193.755 388.245,193.842 388.300 C 194.227 388.544,194.800 388.365,194.800 388.000 C 194.800 387.335,193.805 387.550,192.875 388.416 M341.600 387.957 C 341.600 388.153,341.150 388.426,340.600 388.564 C 340.050 388.702,339.600 388.996,339.600 389.218 C 339.600 389.442,340.122 389.351,340.775 389.013 C 342.040 388.359,342.711 387.600,342.024 387.600 C 341.791 387.600,341.600 387.760,341.600 387.957 M270.435 388.899 C 271.057 389.565,272.086 389.661,271.880 389.033 C 271.801 388.795,271.325 388.540,270.821 388.466 C 270.046 388.352,269.986 388.419,270.435 388.899 M138.543 392.600 C 138.873 392.930,139.246 393.200,139.371 393.200 C 139.497 393.200,139.600 392.930,139.600 392.600 C 139.600 392.260,139.241 392.000,138.771 392.000 C 138.035 392.000,138.010 392.067,138.543 392.600 M184.100 392.265 C 183.435 392.533,183.459 393.200,184.133 393.200 C 184.427 393.200,184.667 392.930,184.667 392.600 C 184.667 392.270,184.652 392.014,184.633 392.032 C 184.615 392.049,184.375 392.154,184.100 392.265 M279.800 392.271 C 280.240 392.389,280.854 392.692,281.165 392.943 C 281.609 393.302,281.688 393.272,281.534 392.800 C 281.426 392.470,280.812 392.168,280.169 392.128 C 279.435 392.083,279.297 392.136,279.800 392.271 M283.851 393.517 C 283.744 393.691,284.003 393.860,284.428 393.892 C 284.852 393.924,285.200 393.781,285.200 393.575 C 285.200 393.120,284.125 393.073,283.851 393.517 M318.252 395.409 C 318.055 395.921,318.160 395.945,318.909 395.555 C 320.184 394.892,320.233 394.800,319.309 394.800 C 318.856 394.800,318.380 395.074,318.252 395.409 M158.937 395.870 C 159.244 396.177,162.400 396.228,162.400 395.926 C 162.400 395.763,161.583 395.646,160.584 395.666 C 159.586 395.686,158.844 395.778,158.937 395.870 M4.019 405.800 C 4.009 406.394,4.723 407.410,4.974 407.159 C 5.094 407.040,4.929 406.595,4.609 406.171 C 4.288 405.747,4.022 405.580,4.019 405.800 M7.613 411.700 C 7.606 412.085,7.767 412.400,7.971 412.400 C 8.175 412.400,8.424 412.715,8.524 413.100 C 8.666 413.644,8.718 413.661,8.754 413.176 C 8.779 412.834,8.536 412.204,8.213 411.776 C 7.681 411.074,7.624 411.067,7.613 411.700 M391.600 411.607 C 391.270 411.816,391.163 411.991,391.362 411.994 C 391.561 411.997,391.453 412.315,391.123 412.700 C 390.792 413.085,390.391 413.670,390.231 414.000 C 390.050 414.374,390.155 414.339,390.510 413.906 C 390.823 413.525,391.196 413.330,391.340 413.473 C 391.483 413.616,391.600 413.448,391.600 413.100 C 391.600 412.752,391.807 412.398,392.060 412.313 C 392.313 412.229,392.448 411.950,392.360 411.693 C 392.252 411.379,392.003 411.351,391.600 411.607 M383.544 419.987 C 383.025 420.419,382.797 420.779,383.039 420.787 C 383.280 420.794,383.893 420.440,384.400 420.000 C 385.595 418.964,384.787 418.951,383.544 419.987 M16.000 420.200 C 16.274 420.530,16.759 420.800,17.078 420.800 C 17.575 420.800,17.572 420.715,17.057 420.200 C 16.727 419.870,16.242 419.600,15.980 419.600 C 15.619 419.600,15.624 419.746,16.000 420.200 M21.200 423.557 C 21.200 423.754,21.485 424.024,21.833 424.157 C 22.811 424.533,22.908 424.451,22.257 423.800 C 21.577 423.120,21.200 423.033,21.200 423.557 M377.772 423.555 C 377.892 423.750,377.596 424.012,377.113 424.139 C 376.630 424.265,376.339 424.472,376.466 424.599 C 376.766 424.900,378.800 423.973,378.800 423.536 C 378.800 423.351,378.519 423.200,378.176 423.200 C 377.833 423.200,377.651 423.360,377.772 423.555 " stroke="none" fill="#f8dc5c" fill-rule="evenodd"></path></g></svg>