<svg id="svg" version="1.1" xmlns="http://www.w3.org/2000/svg" xmlns:xlink="http://www.w3.org/1999/xlink" width="400" height="400" viewBox="0, 0, 400,400"><g id="svgg"><path id="path0" d="M189.375 83.878 C 135.219 88.814,91.230 131.099,84.379 184.807 C 74.246 264.239,144.684 329.910,223.199 314.234 C 253.482 308.188,280.511 289.825,297.591 263.695 C 300.185 259.725,301.358 257.770,301.218 257.644 C 301.050 257.492,251.023 229.993,250.667 229.857 C 250.436 229.768,249.767 230.548,248.678 232.174 C 231.929 257.186,199.502 265.576,173.056 251.740 C 137.770 233.279,130.867 186.108,159.360 158.158 C 185.142 132.869,228.280 137.363,248.414 167.435 C 249.690 169.341,249.833 169.473,250.334 169.209 C 253.196 167.695,300.250 140.670,300.250 140.540 C 300.250 140.132,295.802 133.429,293.527 130.409 C 268.815 97.601,229.843 80.190,189.375 83.878 " stroke="none" fill="#fbfbfb" fill-rule="evenodd"></path><path id="path1" d="M194.697 25.510 C 193.636 25.771,191.981 26.381,191.018 26.866 C 189.461 27.650,54.607 103.121,50.444 105.539 C 46.229 107.986,42.954 112.414,41.984 116.976 C 41.694 118.341,41.524 281.015,41.813 280.836 C 41.916 280.773,42.000 280.991,42.000 281.321 C 42.000 282.843,43.749 286.595,44.390 286.450 C 44.574 286.409,56.627 279.585,71.175 271.287 L 97.625 256.198 95.364 251.662 C 71.699 204.182,83.590 145.938,124.000 111.399 C 176.240 66.748,255.432 76.456,295.103 132.375 C 296.840 134.822,299.828 139.384,300.386 140.439 C 300.454 140.568,353.867 110.024,353.936 109.816 C 354.358 108.551,350.933 106.300,335.360 97.606 C 203.531 24.006,207.133 26.004,206.037 25.884 C 205.811 25.860,205.456 25.772,205.250 25.690 C 203.372 24.938,197.436 24.837,194.697 25.510 M194.250 142.041 C 157.558 145.489,133.110 182.918,144.647 217.982 C 146.071 222.310,148.198 227.049,148.672 226.949 C 149.278 226.822,249.474 169.637,249.487 169.411 C 249.509 169.043,246.393 164.736,244.278 162.211 C 232.302 147.914,213.297 140.251,194.250 142.041 M117.250 282.375 C 118.413 283.544,119.420 284.500,119.489 284.500 C 119.558 284.500,118.663 283.544,117.500 282.375 C 116.337 281.206,115.330 280.250,115.261 280.250 C 115.192 280.250,116.087 281.206,117.250 282.375 M282.250 282.625 C 281.226 283.656,280.444 284.500,280.513 284.500 C 280.581 284.500,281.476 283.656,282.500 282.625 C 283.524 281.594,284.306 280.750,284.237 280.750 C 284.169 280.750,283.274 281.594,282.250 282.625 " stroke="none" fill="#5c6cc4" fill-rule="evenodd"></path><path id="path2" d="M353.847 109.985 C 353.725 110.098,341.813 116.914,327.375 125.131 C 312.938 133.348,300.900 140.273,300.625 140.519 C 299.942 141.130,250.245 169.522,249.650 169.641 C 249.300 169.711,149.066 226.718,148.534 227.149 C 147.886 227.676,154.895 237.151,158.872 241.125 C 185.028 267.258,228.060 262.855,248.676 231.938 C 249.570 230.597,250.338 229.500,250.384 229.500 C 250.492 229.500,301.298 257.464,301.431 257.598 C 301.698 257.865,296.179 266.292,292.971 270.515 C 242.807 336.552,142.491 330.779,99.525 259.383 C 98.534 257.737,97.686 256.353,97.640 256.307 C 97.595 256.261,85.618 263.036,71.025 271.362 C 56.432 279.688,44.391 286.500,44.267 286.500 C 43.937 286.500,43.056 284.989,42.492 283.456 C 42.126 282.461,42.041 282.346,42.155 283.000 C 42.512 285.049,44.153 288.133,46.090 290.392 C 47.874 292.474,49.625 293.565,64.125 301.630 C 64.813 302.013,67.175 303.339,69.375 304.578 C 72.813 306.515,77.918 309.381,85.500 313.632 C 86.531 314.210,87.938 314.995,88.625 315.376 C 89.698 315.970,91.472 316.969,96.625 319.879 C 97.175 320.190,98.188 320.755,98.875 321.135 C 99.563 321.515,101.925 322.839,104.125 324.078 C 107.563 326.015,112.668 328.881,120.250 333.132 C 121.281 333.710,122.688 334.497,123.375 334.880 C 124.063 335.262,126.425 336.589,128.625 337.828 C 132.063 339.765,137.168 342.631,144.750 346.882 C 145.781 347.460,147.188 348.247,147.875 348.630 C 148.563 349.012,150.925 350.339,153.125 351.578 C 156.563 353.515,161.668 356.381,169.250 360.632 C 170.281 361.210,171.688 361.995,172.375 362.376 C 173.063 362.757,174.919 363.799,176.500 364.692 C 178.081 365.584,179.825 366.568,180.375 366.879 C 180.925 367.189,181.825 367.692,182.375 367.996 C 182.925 368.300,185.344 369.656,187.750 371.009 C 193.971 374.507,195.121 374.870,200.000 374.870 C 205.452 374.870,205.368 374.901,216.375 368.692 C 218.438 367.528,220.688 366.265,221.375 365.885 C 222.063 365.505,223.075 364.940,223.625 364.629 C 228.778 361.719,230.552 360.720,231.625 360.126 C 232.313 359.745,233.719 358.960,234.750 358.382 C 242.332 354.131,247.437 351.265,250.875 349.328 C 253.075 348.089,255.438 346.762,256.125 346.380 C 256.813 345.997,258.219 345.210,259.250 344.632 C 266.832 340.381,271.937 337.515,275.375 335.578 C 277.575 334.339,279.938 333.012,280.625 332.630 C 281.313 332.247,282.719 331.460,283.750 330.882 C 291.332 326.631,296.437 323.765,299.875 321.828 C 302.075 320.589,304.438 319.265,305.125 318.885 C 305.813 318.505,306.825 317.940,307.375 317.629 C 312.528 314.719,314.302 313.720,315.375 313.126 C 316.063 312.745,317.469 311.960,318.500 311.382 C 326.082 307.131,331.187 304.265,334.625 302.328 C 336.825 301.089,339.188 299.762,339.875 299.380 C 349.067 294.261,350.557 293.372,352.154 292.055 C 354.821 289.856,356.960 286.473,357.959 282.875 C 358.647 280.397,358.595 119.443,357.905 116.875 C 357.077 113.791,354.488 109.395,353.847 109.985 M41.623 200.250 C 41.623 244.319,41.652 262.347,41.687 240.313 C 41.723 218.278,41.723 182.222,41.687 160.188 C 41.652 138.153,41.623 156.181,41.623 200.250 " stroke="none" fill="#333f9f" fill-rule="evenodd"></path><path id="path3" d="M195.063 83.422 C 195.303 83.485,195.697 83.485,195.938 83.422 C 196.178 83.359,195.981 83.308,195.500 83.308 C 195.019 83.308,194.822 83.359,195.063 83.422 M204.063 83.422 C 204.303 83.485,204.697 83.485,204.938 83.422 C 205.178 83.359,204.981 83.308,204.500 83.308 C 204.019 83.308,203.822 83.359,204.063 83.422 M117.370 117.563 L 114.875 120.125 117.438 117.630 C 118.847 116.257,120.000 115.104,120.000 115.067 C 120.000 114.886,119.688 115.182,117.370 117.563 M282.375 117.500 C 283.745 118.875,284.922 120.000,284.991 120.000 C 285.059 120.000,283.995 118.875,282.625 117.500 C 281.255 116.125,280.078 115.000,280.009 115.000 C 279.941 115.000,281.005 116.125,282.375 117.500 M83.308 195.250 C 83.308 195.731,83.359 195.928,83.422 195.688 C 83.485 195.447,83.485 195.053,83.422 194.813 C 83.359 194.572,83.308 194.769,83.308 195.250 M83.308 204.750 C 83.308 205.231,83.359 205.428,83.422 205.188 C 83.485 204.947,83.485 204.553,83.422 204.313 C 83.359 204.072,83.308 204.269,83.308 204.750 M196.690 316.677 C 197.001 316.737,197.451 316.734,197.690 316.672 C 197.929 316.609,197.675 316.560,197.125 316.563 C 196.575 316.566,196.379 316.617,196.690 316.677 M202.440 316.677 C 202.751 316.737,203.201 316.734,203.440 316.672 C 203.679 316.609,203.425 316.560,202.875 316.563 C 202.325 316.566,202.129 316.617,202.440 316.677 " stroke="none" fill="#8b95ce" fill-rule="evenodd"></path><path id="path4" d="M198.063 83.436 C 199.128 83.483,200.872 83.483,201.938 83.436 C 203.003 83.389,202.131 83.351,200.000 83.351 C 197.869 83.351,196.997 83.389,198.063 83.436 M191.563 83.672 C 191.803 83.735,192.197 83.735,192.438 83.672 C 192.678 83.609,192.481 83.558,192.000 83.558 C 191.519 83.558,191.322 83.609,191.563 83.672 M207.563 83.672 C 207.803 83.735,208.197 83.735,208.438 83.672 C 208.678 83.609,208.481 83.558,208.000 83.558 C 207.519 83.558,207.322 83.609,207.563 83.672 M158.750 158.625 C 158.143 159.244,157.702 159.750,157.771 159.750 C 157.840 159.750,158.393 159.244,159.000 158.625 C 159.607 158.006,160.048 157.500,159.979 157.500 C 159.910 157.500,159.357 158.006,158.750 158.625 M241.125 158.750 C 241.662 159.300,242.158 159.750,242.226 159.750 C 242.295 159.750,241.912 159.300,241.375 158.750 C 240.838 158.200,240.342 157.750,240.274 157.750 C 240.205 157.750,240.588 158.200,241.125 158.750 M83.558 192.000 C 83.558 192.481,83.609 192.678,83.672 192.438 C 83.735 192.197,83.735 191.803,83.672 191.563 C 83.609 191.322,83.558 191.519,83.558 192.000 M83.352 200.000 C 83.352 202.269,83.390 203.197,83.436 202.063 C 83.482 200.928,83.482 199.072,83.436 197.938 C 83.390 196.803,83.352 197.731,83.352 200.000 M141.568 200.000 C 141.568 200.619,141.617 200.872,141.676 200.563 C 141.736 200.253,141.736 199.747,141.676 199.438 C 141.617 199.128,141.568 199.381,141.568 200.000 M83.558 208.000 C 83.558 208.481,83.609 208.678,83.672 208.438 C 83.735 208.197,83.735 207.803,83.672 207.563 C 83.609 207.322,83.558 207.519,83.558 208.000 M158.625 241.250 C 159.302 241.938,159.912 242.500,159.981 242.500 C 160.050 242.500,159.552 241.938,158.875 241.250 C 158.198 240.563,157.588 240.000,157.519 240.000 C 157.450 240.000,157.948 240.563,158.625 241.250 M241.250 241.125 C 240.643 241.744,240.202 242.250,240.271 242.250 C 240.340 242.250,240.893 241.744,241.500 241.125 C 242.107 240.506,242.548 240.000,242.479 240.000 C 242.410 240.000,241.857 240.506,241.250 241.125 M199.188 258.431 C 199.634 258.486,200.366 258.486,200.813 258.431 C 201.259 258.375,200.894 258.330,200.000 258.330 C 199.106 258.330,198.741 258.375,199.188 258.431 M198.938 316.683 C 199.522 316.736,200.478 316.736,201.063 316.683 C 201.647 316.630,201.169 316.587,200.000 316.587 C 198.831 316.587,198.353 316.630,198.938 316.683 " stroke="none" fill="#a9b0db" fill-rule="evenodd"></path></g></svg>